<?xml version="1.0" encoding="utf-8"?>
<!-- Generator: Adobe Illustrator 21.0.0, SVG Export Plug-In . SVG Version: 6.00 Build 0)  -->
<svg version="1.1" id="Layer_1" xmlns="http://www.w3.org/2000/svg" xmlns:xlink="http://www.w3.org/1999/xlink" x="0px" y="0px"
	 viewBox="0 0 23.9 25.6" style="enable-background:new 0 0 23.9 25.6;" xml:space="preserve">
<style type="text/css">
	.st0{fill:#215378;}
</style>
<g>
	<path class="st0" d="M4.3,5C4.7,5.3,5,5.5,5.4,5.7C5.2,6.2,5.1,6.7,4.9,7.2h1.5c0.1-0.3,0.2-0.5,0.3-0.8C7.4,6.8,8.2,7,8.9,7.2h6
		c0.8-0.2,1.5-0.4,2.3-0.8c0.1,0.3,0.2,0.5,0.3,0.8H19c-0.1-0.5-0.3-1-0.5-1.4c0.4-0.2,0.7-0.5,1.1-0.8c0.7,0.7,1.3,1.4,1.7,2.2h2.1
		C21.3,2.9,17,0,11.9,0C6.9,0,2.5,2.9,0.4,7.2h2.1C3.1,6.4,3.7,5.7,4.3,5L4.3,5z M18.4,4.1c-0.2,0.1-0.4,0.3-0.6,0.4
		C17.6,4,17.3,3.6,17,3.1C17.5,3.4,18,3.7,18.4,4.1L18.4,4.1z M16.6,5.1c-0.6,0.3-1.3,0.5-2,0.7c-0.2-1.4-0.5-2.7-0.9-3.7
		C14.8,2.7,15.8,3.7,16.6,5.1L16.6,5.1z M11.8,1.9c0,0,0.1,0,0.1,0c0,0,0.1,0,0.1,0c0.4,0.6,0.8,2,1.1,4.2c-0.4,0-0.8,0.1-1.2,0.1
		c-0.4,0-0.8,0-1.2-0.1C11,3.9,11.4,2.5,11.8,1.9L11.8,1.9z M10.1,2.1c-0.4,1-0.7,2.3-0.9,3.7C8.6,5.7,8,5.4,7.3,5.2
		C8.1,3.8,9.1,2.7,10.1,2.1L10.1,2.1z M6.9,3.1C6.6,3.6,6.3,4,6,4.5C5.8,4.3,5.6,4.2,5.4,4.1C5.9,3.7,6.4,3.4,6.9,3.1L6.9,3.1z
		 M6.9,3.1"/>
	<path class="st0" d="M19.5,20.6c-0.4-0.3-0.7-0.5-1.1-0.8c0.2-0.5,0.4-0.9,0.5-1.4h-1.5c-0.1,0.3-0.2,0.5-0.3,0.8
		c-0.7-0.3-1.5-0.6-2.3-0.8h-6c-0.8,0.2-1.5,0.4-2.2,0.8c-0.1-0.2-0.2-0.5-0.3-0.8H4.9c0.2,0.5,0.3,1,0.5,1.4
		c-0.4,0.2-0.7,0.5-1.1,0.8c-0.7-0.7-1.3-1.4-1.7-2.2H0.4c2.1,4.3,6.4,7.2,11.5,7.2c5,0,9.4-2.9,11.5-7.2h-2.2
		C20.8,19.2,20.2,19.9,19.5,20.6L19.5,20.6z M5.4,21.5c0.2-0.1,0.4-0.3,0.6-0.4c0.3,0.5,0.5,0.9,0.8,1.3C6.4,22.2,5.9,21.9,5.4,21.5
		L5.4,21.5z M7.3,20.4c0.6-0.3,1.3-0.5,2-0.7c0.2,1.4,0.5,2.7,0.9,3.7C9.1,22.9,8.1,21.8,7.3,20.4L7.3,20.4z M12.1,23.7
		c0,0-0.1,0-0.1,0c-0.1,0-0.1,0-0.1,0c-0.4-0.6-0.8-2-1.1-4.2c0.4,0,0.8-0.1,1.2-0.1c0.4,0,0.8,0,1.2,0.1
		C12.8,21.7,12.4,23.1,12.1,23.7L12.1,23.7z M13.7,23.5c0.4-1,0.7-2.4,0.9-3.7c0.7,0.2,1.4,0.4,2,0.7C15.8,21.9,14.8,22.9,13.7,23.5
		L13.7,23.5z M17,22.5c0.3-0.4,0.6-0.9,0.8-1.3c0.2,0.1,0.4,0.3,0.6,0.4C18,21.9,17.5,22.2,17,22.5L17,22.5z M17,22.5"/>
	<path class="st0" d="M3,15.3l0.5-1.8c0.1-0.5,0.2-0.9,0.3-1.6h0c0.1,0.6,0.2,1.1,0.3,1.6l0.5,1.8h1.5l1.6-5.1H6.1l-0.4,2
		c-0.1,0.6-0.2,1.2-0.3,1.7h0c-0.1-0.6-0.2-1.2-0.4-1.7l-0.5-2H3.2l-0.5,2.1c-0.1,0.5-0.3,1.1-0.4,1.7h0c-0.1-0.6-0.2-1.1-0.3-1.7
		l-0.4-2.1H0l1.5,5.1H3z M3,15.3"/>
	<path class="st0" d="M13.8,12.3c-0.1,0.6-0.2,1.2-0.3,1.7h0c-0.1-0.6-0.2-1.2-0.4-1.7l-0.5-2h-1.2l-0.5,2.1
		c-0.1,0.5-0.3,1.1-0.4,1.7h0c-0.1-0.6-0.2-1.1-0.3-1.7l-0.4-2.1H8.1l1.5,5.1h1.5l0.5-1.8c0.1-0.5,0.2-1,0.3-1.6h0
		c0.1,0.6,0.2,1.1,0.3,1.6l0.5,1.8h1.5l1.6-5.1h-1.6L13.8,12.3z M13.8,12.3"/>
	<path class="st0" d="M21.9,12.3c-0.1,0.6-0.2,1.2-0.3,1.7h0c-0.1-0.6-0.2-1.2-0.4-1.7l-0.5-2h-1.3l-0.5,2.1
		c-0.1,0.5-0.3,1.1-0.4,1.7h0c-0.1-0.6-0.2-1.1-0.3-1.7l-0.4-2.1h-1.6l1.5,5.1h1.5l0.5-1.8c0.1-0.5,0.2-1,0.3-1.6h0
		c0.1,0.6,0.2,1.1,0.3,1.6l0.5,1.8h1.5l1.6-5.1h-1.6L21.9,12.3z M21.9,12.3"/>
</g>
</svg>
