<?xml version="1.0" encoding="UTF-8"?>
<svg width="578px" height="529px" viewBox="0 0 578 529" version="1.1" xmlns="http://www.w3.org/2000/svg" xmlns:xlink="http://www.w3.org/1999/xlink">
    <!-- Generator: Sketch 52.5 (67469) - http://www.bohemiancoding.com/sketch -->
    <title>Group 12</title>
    <desc>Created with Sketch.</desc>
    <defs>
        <circle id="path-1" cx="17.5" cy="17.5" r="17.5"></circle>
        <filter x="-182.9%" y="-160.0%" width="465.7%" height="465.7%" filterUnits="objectBoundingBox" id="filter-2">
            <feOffset dx="0" dy="8" in="SourceAlpha" result="shadowOffsetOuter1"></feOffset>
            <feGaussianBlur stdDeviation="20" in="shadowOffsetOuter1" result="shadowBlurOuter1"></feGaussianBlur>
            <feColorMatrix values="0 0 0 0 0.0274509804   0 0 0 0 0.164705882   0 0 0 0 0.266666667  0 0 0 0.12 0" type="matrix" in="shadowBlurOuter1"></feColorMatrix>
        </filter>
        <circle id="path-3" cx="17" cy="17" r="17"></circle>
        <filter x="-400.0%" y="-350.0%" width="900.0%" height="900.0%" filterUnits="objectBoundingBox" id="filter-4">
            <feOffset dx="0" dy="17" in="SourceAlpha" result="shadowOffsetOuter1"></feOffset>
            <feGaussianBlur stdDeviation="42.5" in="shadowOffsetOuter1" result="shadowBlurOuter1"></feGaussianBlur>
            <feColorMatrix values="0 0 0 0 0.0274509804   0 0 0 0 0.164705882   0 0 0 0 0.266666667  0 0 0 0.12 0" type="matrix" in="shadowBlurOuter1"></feColorMatrix>
        </filter>
        <circle id="path-5" cx="14" cy="14" r="14"></circle>
        <filter x="-285.7%" y="-250.0%" width="671.4%" height="671.4%" filterUnits="objectBoundingBox" id="filter-6">
            <feOffset dx="0" dy="10" in="SourceAlpha" result="shadowOffsetOuter1"></feOffset>
            <feGaussianBlur stdDeviation="25" in="shadowOffsetOuter1" result="shadowBlurOuter1"></feGaussianBlur>
            <feColorMatrix values="0 0 0 0 0.0274509804   0 0 0 0 0.164705882   0 0 0 0 0.266666667  0 0 0 0.12 0" type="matrix" in="shadowBlurOuter1"></feColorMatrix>
        </filter>
        <circle id="path-7" cx="15" cy="15" r="15"></circle>
        <filter x="-266.7%" y="-233.3%" width="633.3%" height="633.3%" filterUnits="objectBoundingBox" id="filter-8">
            <feOffset dx="0" dy="10" in="SourceAlpha" result="shadowOffsetOuter1"></feOffset>
            <feGaussianBlur stdDeviation="25" in="shadowOffsetOuter1" result="shadowBlurOuter1"></feGaussianBlur>
            <feColorMatrix values="0 0 0 0 0.0274509804   0 0 0 0 0.164705882   0 0 0 0 0.266666667  0 0 0 0.12 0" type="matrix" in="shadowBlurOuter1"></feColorMatrix>
        </filter>
        <circle id="path-9" cx="26" cy="26" r="26"></circle>
        <filter x="-153.8%" y="-134.6%" width="407.7%" height="407.7%" filterUnits="objectBoundingBox" id="filter-10">
            <feOffset dx="0" dy="10" in="SourceAlpha" result="shadowOffsetOuter1"></feOffset>
            <feGaussianBlur stdDeviation="25" in="shadowOffsetOuter1" result="shadowBlurOuter1"></feGaussianBlur>
            <feColorMatrix values="0 0 0 0 0.0274509804   0 0 0 0 0.164705882   0 0 0 0 0.266666667  0 0 0 0.12 0" type="matrix" in="shadowBlurOuter1"></feColorMatrix>
        </filter>
        <circle id="path-11" cx="20" cy="20" r="20"></circle>
        <filter x="-220.0%" y="-192.5%" width="540.0%" height="540.0%" filterUnits="objectBoundingBox" id="filter-12">
            <feOffset dx="0" dy="11" in="SourceAlpha" result="shadowOffsetOuter1"></feOffset>
            <feGaussianBlur stdDeviation="27.5" in="shadowOffsetOuter1" result="shadowBlurOuter1"></feGaussianBlur>
            <feColorMatrix values="0 0 0 0 0.0274509804   0 0 0 0 0.164705882   0 0 0 0 0.266666667  0 0 0 0.12 0" type="matrix" in="shadowBlurOuter1"></feColorMatrix>
        </filter>
        <path d="M29.396,15.7984286 C13.6568,15.7984286 0.896,12.3741429 0.896,8.14842857 C0.896,3.92514286 13.6568,0.500857143 29.396,0.500857143 C45.1376,0.500857143 57.8984,3.92514286 57.8984,8.14842857 C57.8984,12.3741429 45.1376,15.7984286 29.396,15.7984286 Z" id="path-13"></path>
    </defs>
    <g id="Enterprise" stroke="none" stroke-width="1" fill="none" fill-rule="evenodd">
        <g id="features-rebrandly-v0.0.1" transform="translate(-864.000000, -2694.000000)">
            <g id="Group-12" transform="translate(864.000000, 2731.000000)">
                <path d="M1.85464625,227.404705 C41.9963489,118.531412 110.355023,64.0632066 206.930667,64.0000885 C351.794134,63.9054113 498.322699,139.802201 520.801513,223.190794 C543.280327,306.579388 514.973672,378.105959 445.872133,372.82476 C376.770594,367.543561 329.231721,329.026173 251.888295,320.012772 C174.544869,310.999371 75.0319451,353.460364 33.570668,319.132572 C5.92981653,296.247377 -4.64219071,265.671422 1.85464625,227.404705 Z" id="Path-4" fill="#F5F6F8" opacity="0.886300223"></path>
                <g id="Row-Copy-4" transform="translate(277.000000, 1.000000)">
                    <rect id="Container-Copy-2" fill="#F6F7F9" x="0" y="0" width="221" height="54" rx="4"></rect>
                    <text id="Brand.link/Keyword" font-family="ProximaNova-Semibold, Proxima Nova" font-size="16.1" font-weight="500" line-spacing="22.7999997" letter-spacing="-0.1073333" fill="#2180C1">
                        <tspan x="52" y="31">Brand.link/Keyword</tspan>
                    </text>
                    <path d="M19.2200348,33.2998867 C18.9266551,32.2085623 18.9266551,31.1172542 19.2200348,30.0259298 C19.5134146,28.9346054 20.0915367,27.9838446 20.9544185,27.1736189 L24.3455267,23.9244648 C25.1911508,23.1142391 26.18345,22.5603176 27.3224539,22.2626837 C28.4614577,21.9650497 29.5918159,21.9650497 30.7135621,22.2626837 C31.8353084,22.5603176 32.8362362,23.1142391 33.7163756,23.9244648 C34.0615283,24.2551691 34.234102,24.6602759 34.234102,25.1397972 C34.234102,25.6193186 34.0615283,26.0326928 33.7163756,26.3799324 C33.3712229,26.727172 32.9397885,26.8925217 32.4220594,26.8759865 C31.9043304,26.8594513 31.4815247,26.6941016 31.1536296,26.3799324 C30.5496124,25.817735 29.84206,25.5366405 29.0309512,25.5366405 C28.2198423,25.5366405 27.5209186,25.817735 26.934159,26.3799324 L23.5171644,29.6290866 C22.9476625,30.191284 22.6629158,30.8692178 22.6629158,31.6629082 C22.6629158,32.4565987 22.9519768,33.1303987 23.5301076,33.6843286 C24.1082383,34.2382584 24.8114764,34.5152191 25.6398429,34.5152191 C26.4682093,34.5152191 27.1671331,34.2423921 27.736635,33.6967299 L28.4355657,33.0022542 C29.7816612,33.6305925 31.1967661,33.9199545 32.6809227,33.8703488 L30.3252673,36.1521975 C29.4796432,36.9624232 28.4873441,37.5080773 27.3483402,37.789176 C26.2093363,38.0702747 25.0703495,38.0702747 23.9313456,37.789176 C22.7923417,37.5080773 21.8000426,36.9624232 20.9544185,36.1521975 C20.1087944,35.3419718 19.5306723,34.3912111 19.2200348,33.2998867 Z M26.7529548,28.8354 C26.7529548,28.3558787 26.9298429,27.9466382 27.2836244,27.6076662 C27.6374059,27.2686943 28.0645259,27.0992108 28.5649973,27.0992108 C29.0654688,27.0992108 29.4969032,27.272828 29.8593135,27.6200676 C30.4288154,28.182265 31.1277392,28.4633595 31.9561056,28.4633595 C32.7844721,28.4633595 33.4920245,28.182265 34.0787841,27.6200676 L37.4698924,24.3461107 C38.0566519,23.7839133 38.3500273,23.114247 38.3500273,22.3370918 C38.3500273,21.5599365 38.0609663,20.8902702 37.4828355,20.3280728 C36.9047048,19.7658754 36.2014667,19.4847809 35.3731002,19.4847809 C34.5447338,19.4847809 33.8371813,19.7658754 33.2504218,20.3280728 L32.551491,20.9729431 C31.2226532,20.3776752 29.8075483,20.0883132 28.3061341,20.1048485 L30.6617895,17.8478025 C31.5246712,17.0375768 32.525599,16.4919227 33.6646029,16.210824 C34.8036068,15.9297253 35.9339649,15.9297253 37.0557112,16.210824 C38.1774575,16.4919227 39.1654422,17.0375768 40.0196951,17.8478025 C40.8739481,18.6580282 41.4563845,19.6087889 41.7670219,20.7001133 C42.0776594,21.7914377 42.0776594,22.8827458 41.7670219,23.9740702 C41.4563845,25.0653946 40.8782624,26.0161554 40.0326383,26.8263811 L36.64153,30.0755352 C35.7959059,30.8857609 34.8036068,31.4396824 33.6646029,31.7373163 C32.525599,32.0349503 31.3866122,32.0349503 30.2476083,31.7373163 C29.1086044,31.4396824 28.124934,30.8857609 27.2965675,30.0755352 C26.9341572,29.7282956 26.7529548,29.3149214 26.7529548,28.8354 Z" id="link-4---fontello" fill="#2C96DF"></path>
                </g>
                <g id="Group-20-Copy" transform="translate(130.000000, 49.000000)">
                    <g id="Oval-Copy-3">
                        <use fill="black" fill-opacity="1" filter="url(#filter-2)" xlink:href="#path-1"></use>
                        <use fill="#AFB9C5" fill-rule="evenodd" xlink:href="#path-1"></use>
                    </g>
                    <path d="M19.1078833,16.1178915 L23.0809091,16.1178915 L23.0809091,20.1865241 L19.1078833,20.1865241 L19.1078833,29.68 L15.1093894,29.68 L15.1093894,20.1865241 L11.1363636,20.1865241 L11.1363636,16.1178915 L15.1093894,16.1178915 L15.1093894,14.396547 C15.1093894,13.5271767 15.245218,12.6404323 15.5168792,11.7362872 C15.7885405,10.8321422 16.1535798,10.1279628 16.6120081,9.62372804 C17.5967801,8.51093408 18.8277267,7.95454545 20.3048847,7.95454545 L23.0809091,7.95454545 L23.0809091,12.049259 L20.3048847,12.049259 C19.9653081,12.049259 19.6766724,12.1622754 19.4389688,12.3883117 C19.2012652,12.614348 19.0909045,12.9012358 19.1078833,13.248984 L19.1078833,16.1178915 Z" id="facebook-2---fontello" fill="#FFFFFF"></path>
                </g>
                <g id="Group-19-Copy" transform="translate(403.000000, 216.000000)">
                    <g id="Oval-Copy-2">
                        <use fill="black" fill-opacity="1" filter="url(#filter-4)" xlink:href="#path-3"></use>
                        <use fill="#AFB9C5" fill-rule="evenodd" xlink:href="#path-3"></use>
                    </g>
                    <path d="M14.3810004,25.5 C21.4378568,25.5 25.2970132,19.6142087 25.2970132,14.5105189 C25.2970132,14.3432699 25.2936472,14.1767741 25.2860176,14.0111818 C26.0350648,13.4660603 26.6862736,12.7858444 27.2,12.0113487 C26.5125132,12.3187373 25.7727412,12.5259723 24.9966912,12.6193486 C25.7887484,12.1413224 26.3969472,11.3846735 26.6837304,10.4828397 C25.9423128,10.9252473 25.1215324,11.2470942 24.247644,11.4202921 C23.547516,10.6695922 22.5505068,10.2 21.4472068,10.2 C19.3282724,10.2 17.6099668,11.9297951 17.6099668,14.0621622 C17.6099668,14.3653338 17.6437016,14.6599962 17.7095256,14.9428358 C14.521026,14.7814606 11.6935112,13.2444423 9.80152,10.9074004 C9.4717268,11.4780498 9.2818844,12.1413224 9.2818844,12.8486475 C9.2818844,14.1887473 9.9592732,15.3716889 10.9891944,16.0637274 C10.359902,16.0442238 9.768608,15.8701223 9.2515904,15.5805053 C9.2506928,15.5966202 9.2506928,15.6128104 9.2506928,15.6297537 C9.2506928,17.5005921 10.5733812,19.0622346 12.3287128,19.4163866 C12.0064744,19.5046422 11.667406,19.552234 11.317342,19.552234 C11.0702028,19.552234 10.8297956,19.5276098 10.5961204,19.4825783 C11.0844896,21.0171116 12.5008276,22.1337861 14.1802372,22.165263 C12.8668988,23.2012122 11.2127716,23.818625 9.415178,23.818625 C9.1056556,23.818625 8.8002472,23.8007781 8.5,23.7650843 C10.19796,24.8605233 12.2139696,25.5 14.3810004,25.5" id="icon" fill="#FFFFFF"></path>
                </g>
                <g id="Group-14-Copy" transform="translate(201.000000, 0.000000)">
                    <g id="Oval-Copy-4">
                        <use fill="black" fill-opacity="1" filter="url(#filter-6)" xlink:href="#path-5"></use>
                        <use fill="#AFB9C5" fill-rule="evenodd" xlink:href="#path-5"></use>
                    </g>
                    <path d="M8.4,8.26540011 C8.4,7.86639812 8.5396486,7.53523144 8.81894999,7.27189012 C9.09825139,7.00854881 9.45934277,6.87887511 9.90223498,6.88286513 C10.3451272,6.88685515 10.7042236,7.01852383 10.979535,7.27787512 C11.2548463,7.53722642 11.3925,7.878368 11.3925,8.30131011 C11.3925,8.68435202 11.2548463,9.0055438 10.979535,9.2648951 C10.7042236,9.52424639 10.3391422,9.65392009 9.88427998,9.65392009 L9.87230998,9.65392009 C9.43340779,9.65392009 9.07830135,9.52225141 8.80697999,9.2589101 C8.53565864,8.99556878 8.4,8.6644021 8.4,8.26540011 Z M8.55561,18.73915 L8.55561,10.7431901 L11.21295,10.7431901 L11.21295,18.73915 L8.55561,18.73915 Z M12.6852599,18.73915 C12.70122,16.329178 12.7091999,14.4578867 12.7091999,13.12522 C12.7091999,11.7925534 12.70122,10.9985514 12.6852599,10.7431901 L15.3425999,10.7431901 L15.3425999,11.8803401 L15.3306299,11.9042801 L15.3425999,11.9042801 L15.3425999,11.8803401 C15.9171628,10.9945556 16.7191447,10.5516701 17.7485699,10.5516701 C18.6662745,10.54369 19.4044171,10.846927 19.9630199,11.4613901 C20.5216226,12.0758531 20.8009198,12.9735941 20.8009198,14.15464 L20.8009198,18.73915 L18.1435799,18.73915 L18.1435799,14.46586 C18.1435799,13.260874 17.6967044,12.6583901 16.8029399,12.6583901 C16.4677782,12.65041 16.1844911,12.7421791 15.9530699,12.9337001 C15.7216488,13.125221 15.5500805,13.3566387 15.4383599,13.62796 C15.3745196,13.7795808 15.3425999,13.9950386 15.3425999,14.27434 L15.3425999,18.73915 L12.6852599,18.73915 Z" id="linkedin-4---fontello" fill="#FFFFFF"></path>
                </g>
                <g id="Group-18-Copy" transform="translate(483.000000, 40.000000)">
                    <g id="Group-23">
                        <g id="Oval-Copy-6">
                            <use fill="black" fill-opacity="1" filter="url(#filter-8)" xlink:href="#path-7"></use>
                            <use fill="#AFB9C5" fill-rule="evenodd" xlink:href="#path-7"></use>
                        </g>
                        <path d="M22.275,8.25 L8.475,8.25 C7.52625,8.25 6.758625,9.06361607 6.758625,10.0580357 L6.75,19.9419643 C6.75,20.9363839 7.52625,21.75 8.475,21.75 L22.275,21.75 C23.22375,21.75 24,20.9363839 24,19.9419643 L24,10.0580357 C24,9.06361607 23.22375,8.25 22.275,8.25 Z M22.0833333,11.8316327 L15.375,15.9642857 L8.66666667,11.8316327 L8.66666667,10.1785714 L15.375,14.3112245 L22.0833333,10.1785714 L22.0833333,11.8316327 Z" id="Shape" fill="#FFFFFF" fill-rule="nonzero"></path>
                    </g>
                </g>
                <g id="Group-63" transform="translate(479.000000, 190.000000)">
                    <g id="Oval-Copy-5">
                        <use fill="black" fill-opacity="1" filter="url(#filter-10)" xlink:href="#path-9"></use>
                        <use fill="#AFB9C5" fill-rule="evenodd" xlink:href="#path-9"></use>
                    </g>
                    <path d="M24.05,27.95 L18.85,27.95 L18.85,26 L16.9,26 L16.9,24.05 L20.8,24.05 L20.8,26 L26,26 L26,27.95 L26,29.9 L24.05,29.9 L24.05,27.95 Z M31.2,37.05 L31.2,35.75 L33.15,35.75 L33.15,37.7 L33.15,39 L25.35,39 L25.35,37.05 L31.2,37.05 Z M33.15,33.8 L33.15,31.85 L29.9,31.85 L29.9,29.9 L35.1,29.9 L35.1,27.95 L35.1,26 L37.05,26 L37.05,24.05 L39,24.05 L39,26 L39,27.95 L37.05,27.95 L37.05,29.9 L37.05,31.85 L35.1,31.85 L35.1,33.8 L37.05,33.8 L37.05,35.1 L39,35.1 L39,37.05 L37.05,37.05 L37.05,35.75 L33.15,35.75 L33.15,33.8 Z M26,33.8 L27.95,33.8 L27.95,35.75 L24.05,35.75 L24.05,33.8 L24.05,31.85 L26,31.85 L26,33.8 Z M31.85,26 L29.9,26 L29.9,24.05 L33.8,24.05 L33.8,26 L33.8,27.95 L31.85,27.95 L31.85,26 Z M26,18.85 L24.05,18.85 L24.05,16.9 L24.05,14.95 L24.05,13 L27.95,13 L27.95,14.95 L26,14.95 L26,16.9 L27.95,16.9 L27.95,18.85 L27.95,20.8 L27.95,22.75 L24.05,22.75 L24.05,20.8 L26,20.8 L26,18.85 Z M13,26 L13,24.05 L14.95,24.05 L14.95,26 L13,26 Z M26,26 L26,24.05 L27.95,24.05 L27.95,26 L26,26 Z M27.95,29.9 L27.95,27.95 L29.9,27.95 L29.9,29.9 L27.95,29.9 Z M26,31.85 L26,29.9 L27.95,29.9 L27.95,31.85 L26,31.85 Z M27.95,33.8 L27.95,31.85 L29.9,31.85 L29.9,33.8 L27.95,33.8 Z M35.1,39 L35.1,37.05 L37.05,37.05 L37.05,39 L35.1,39 Z M37.05,33.8 L37.05,31.85 L39,31.85 L39,33.8 L37.05,33.8 Z M14.95,27.95 L14.95,26 L16.9,26 L16.9,27.95 L14.95,27.95 Z M14.95,14.95 L14.95,20.15 L20.15,20.15 L20.15,14.95 L14.95,14.95 Z M31.85,14.95 L31.85,20.15 L37.05,20.15 L37.05,14.95 L31.85,14.95 Z M14.95,31.85 L14.95,37.05 L20.15,37.05 L20.15,31.85 L14.95,31.85 Z M22.1,13 L22.1,22.1 L13,22.1 L13,13 L22.1,13 Z M39,13 L39,22.1 L29.9,22.1 L29.9,13 L39,13 Z M22.1,29.9 L22.1,39 L13,39 L13,29.9 L22.1,29.9 Z M16.9,16.9 L18.2,16.9 L18.2,18.2 L16.9,18.2 L16.9,16.9 Z M33.8,16.9 L35.1,16.9 L35.1,18.2 L33.8,18.2 L33.8,16.9 Z M16.9,33.8 L18.2,33.8 L18.2,35.1 L16.9,35.1 L16.9,33.8 Z" id="icon" fill="#FFFFFF" fill-rule="nonzero"></path>
                </g>
                <g id="Group-21-Copy" transform="translate(108.000000, 114.000000)">
                    <g id="Oval-Copy-7">
                        <use fill="black" fill-opacity="1" filter="url(#filter-12)" xlink:href="#path-11"></use>
                        <use fill="#AFB9C5" fill-rule="evenodd" xlink:href="#path-11"></use>
                    </g>
                    <g id="icons/ic-sms" transform="translate(5.555556, 14.444444)" fill="#FFFFFF">
                        <path d="M4.13089226,11.1111111 C2.33901515,11.1111111 0.765993266,10.2886631 0,9.09530721 L1.2037037,7.40203193 C1.83291246,8.40187067 3.02293771,9.07918078 4.28135522,9.07918078 C5.2662037,9.07918078 5.66287879,8.4179971 5.66287879,7.86969844 C5.66287879,6.3538139 1.21738215,6.64408966 1.21738215,3.49943557 C1.21738215,1.72552814 2.54419192,0 4.78745791,0 C6.23737374,0 7.60521886,0.628930818 8.42592593,1.74165457 L7.20854377,3.38655056 C6.52462121,2.45121755 5.41666667,2.0158039 4.48653199,2.0158039 C3.78893098,2.0158039 3.26914983,2.49959684 3.26914983,3.08014836 C3.26914983,4.48314788 7.72832492,4.30575714 7.72832492,7.41815836 C7.72832492,9.38558297 6.3878367,11.1111111 4.13089226,11.1111111 Z M18.4291188,10.4575163 L16.4506173,10.4575163 L17.9171988,2.91618896 L13.8495104,10.4575163 L12.9916986,10.4575163 L11.8571733,2.91618896 L10.3905917,10.4575163 L8.42592593,10.4575163 L10.4597701,0 L13.143891,0 L14.1123883,6.53790752 L17.6266496,0 L20.462963,0 L18.4291188,10.4575163 Z M24.5938552,11.1111111 C22.8019781,11.1111111 21.2289562,10.2886631 20.462963,9.09530721 L21.6666667,7.40203193 C22.2958754,8.40187067 23.4859007,9.07918078 24.7443182,9.07918078 C25.7291667,9.07918078 26.1258418,8.4179971 26.1258418,7.86969844 C26.1258418,6.3538139 21.6803451,6.64408966 21.6803451,3.49943557 C21.6803451,1.72552814 23.0071549,0 25.2504209,0 C26.7003367,0 28.0681818,0.628930818 28.8888889,1.74165457 L27.6715067,3.38655056 C26.9875842,2.45121755 25.8796296,2.0158039 24.9494949,2.0158039 C24.2518939,2.0158039 23.7321128,2.49959684 23.7321128,3.08014836 C23.7321128,4.48314788 28.1912879,4.30575714 28.1912879,7.41815836 C28.1912879,9.38558297 26.8507997,11.1111111 24.5938552,11.1111111 Z" id="SMS"></path>
                    </g>
                </g>
                <g id="Row-Copy-5" transform="translate(42.000000, 204.000000)">
                    <rect id="Container-Copy-2" fill="#FFFFFF" x="0" y="0" width="154.7" height="37.8" rx="2.8"></rect>
                    <text id="Brand.link/Keyword" font-family="ProximaNova-Semibold, Proxima Nova" font-size="11.27" font-weight="500" line-spacing="15.9599998" letter-spacing="-0.0751333117" fill="#2180C1">
                        <tspan x="36.4" y="21.2">Brand.link/Keyword</tspan>
                    </text>
                    <path d="M13.4540244,23.3099207 C13.2486585,22.5459936 13.2486585,21.782078 13.4540244,21.0181509 C13.6593902,20.2542238 14.0640757,19.5886912 14.6680929,19.0215332 L17.0418687,16.7471253 C17.6338056,16.1799674 18.328415,15.7922223 19.1257177,15.5838786 C19.9230204,15.3755348 20.7142711,15.3755348 21.4994935,15.5838786 C22.2847159,15.7922223 22.9853653,16.1799674 23.6014629,16.7471253 C23.8430698,16.9786184 23.9638714,17.2621931 23.9638714,17.5978581 C23.9638714,17.933523 23.8430698,18.222885 23.6014629,18.4659527 C23.359856,18.7090204 23.0578519,18.8247652 22.6954416,18.8131905 C22.3330313,18.8016159 22.0370673,18.6858711 21.8075407,18.4659527 C21.3847287,18.0724145 20.889442,17.8756484 20.3216658,17.8756484 C19.7538896,17.8756484 19.264643,18.0724145 18.8539113,18.4659527 L16.4620151,20.7403606 C16.0633637,21.1338988 15.864041,21.6084524 15.864041,22.1640358 C15.864041,22.7196191 16.0663838,23.1912791 16.4710753,23.57903 C16.8757668,23.9667809 17.3680335,24.1606534 17.94789,24.1606534 C18.5277465,24.1606534 19.0169931,23.9696745 19.4156445,23.5877109 L19.904896,23.101578 C20.8471629,23.5414148 21.8377362,23.7439681 22.8766459,23.7092442 L21.2276871,25.3065383 C20.6357502,25.8736963 19.9411408,26.2556541 19.1438381,26.4524232 C18.3465354,26.6491923 17.5492446,26.6491923 16.7519419,26.4524232 C15.9546392,26.2556541 15.2600298,25.8736963 14.6680929,25.3065383 C14.0761561,24.7393803 13.6714706,24.0738477 13.4540244,23.3099207 Z M18.7270683,20.18478 C18.7270683,19.8491151 18.85089,19.5626467 19.0985371,19.3253664 C19.3461841,19.088086 19.6451682,18.9694476 19.9954981,18.9694476 C20.3458281,18.9694476 20.6478322,19.0909796 20.9015194,19.3340473 C21.3001708,19.7275855 21.7894174,19.9243516 22.3692739,19.9243516 C22.9491305,19.9243516 23.4444172,19.7275855 23.8551489,19.3340473 L26.2289247,17.0422775 C26.6396564,16.6487393 26.8450191,16.1799729 26.8450191,15.6359642 C26.8450191,15.0919556 26.6426764,14.6231891 26.2379849,14.229651 C25.8332933,13.8361128 25.3410267,13.6393466 24.7611702,13.6393466 C24.1813136,13.6393466 23.6860269,13.8361128 23.2752952,14.229651 L22.7860437,14.6810602 C21.8558572,14.2643727 20.8652838,14.0618193 19.8142939,14.0733939 L21.4632526,12.4934617 C22.0672699,11.9263037 22.7679193,11.5443459 23.565222,11.3475768 C24.3625248,11.1508077 25.1537755,11.1508077 25.9389978,11.3475768 C26.7242202,11.5443459 27.4158096,11.9263037 28.0137866,12.4934617 C28.6117636,13.0606197 29.0194692,13.7261523 29.2369154,14.4900793 C29.4543615,15.2540064 29.4543615,16.017922 29.2369154,16.7818491 C29.0194692,17.5457762 28.6147837,18.2113088 28.0228468,18.7784668 L25.649071,21.0528747 C25.0571342,21.6200326 24.3625248,22.0077777 23.565222,22.2161214 C22.7679193,22.4244652 21.9706286,22.4244652 21.1733258,22.2161214 C20.3760231,22.0077777 19.6874538,21.6200326 19.1075973,21.0528747 C18.85391,20.8098069 18.7270683,20.520445 18.7270683,20.18478 Z" id="link-4---fontello" fill="#2C96DF"></path>
                </g>
                <g id="Row-Copy-6" transform="translate(374.000000, 102.000000)">
                    <rect id="Container-Copy-2" fill="#AFB9C5" x="0" y="0" width="170.17" height="41.58" rx="3.08"></rect>
                    <text id="Brand.link/Keyword" font-family="ProximaNova-Semibold, Proxima Nova" font-size="12.397" font-weight="500" line-spacing="17.5559998" letter-spacing="-0.0826466396" fill="#FFFFFF">
                        <tspan x="40.04" y="23.32">Brand.link/Keyword</tspan>
                    </text>
                    <path d="M14.7994268,25.6409127 C14.5735244,24.8005929 14.5735244,23.9602857 14.7994268,23.119966 C15.0253293,22.2796462 15.4704833,21.5475604 16.1349022,20.9236866 L18.7460556,18.4218379 C19.3971862,17.7979641 20.1612565,17.3714445 21.0382895,17.1422664 C21.9153225,16.9130883 22.7856982,16.9130883 23.6494428,17.1422664 C24.5131875,17.3714445 25.2839019,17.7979641 25.9616092,18.4218379 C26.2273768,18.6764802 26.3602586,18.9884125 26.3602586,19.3576439 C26.3602586,19.7268753 26.2273768,20.0451735 25.9616092,20.312548 C25.6958416,20.5799224 25.3636371,20.7072417 24.9649858,20.6945096 C24.5663344,20.6817775 24.240774,20.5544582 23.9882948,20.312548 C23.5232015,19.8796559 22.9783862,19.6632132 22.3538324,19.6632132 C21.7292786,19.6632132 21.1911073,19.8796559 20.7393024,20.312548 L18.1082166,22.8143966 C17.6697001,23.2472887 17.4504451,23.7692977 17.4504451,24.3804393 C17.4504451,24.991581 17.6730221,25.510407 18.1181828,25.936933 C18.5633435,26.3634589 19.1048368,26.5767187 19.742679,26.5767187 C20.3805212,26.5767187 20.9186925,26.3666419 21.357209,25.946482 L21.8953856,25.4117357 C22.9318792,25.8955562 24.0215099,26.118365 25.1643104,26.0801686 L23.3504558,27.8371921 C22.6993253,28.4610659 21.9352549,28.8812195 21.0582219,29.0976655 C20.1811889,29.3141115 19.3041691,29.3141115 18.4271361,29.0976655 C17.5501031,28.8812195 16.7860328,28.4610659 16.1349022,27.8371921 C15.4837717,27.2133183 15.0386176,26.4812325 14.7994268,25.6409127 Z M20.5997752,22.203258 C20.5997752,21.8340266 20.735979,21.5189114 21.0083908,21.257903 C21.2808025,20.9968946 21.609685,20.8663923 21.995048,20.8663923 C22.3804109,20.8663923 22.7126154,21.0000776 22.9916714,21.267452 C23.4301879,21.7003441 23.9683591,21.9167868 24.6062013,21.9167868 C25.2440435,21.9167868 25.7888589,21.7003441 26.2406637,21.267452 L28.8518171,18.7465053 C29.303622,18.3136133 29.529521,17.7979702 29.529521,17.1995607 C29.529521,16.6011511 29.306944,16.0855081 28.8617834,15.6526161 C28.4166227,15.219724 27.8751293,15.0032813 27.2372872,15.0032813 C26.599445,15.0032813 26.0546296,15.219724 25.6028248,15.6526161 L25.0646481,16.1491662 C24.0414429,15.6908099 22.9518122,15.4680012 21.7957233,15.4807333 L23.6095779,13.7428079 C24.2739968,13.1189341 25.0447112,12.6987805 25.9217442,12.4823345 C26.7987772,12.2658885 27.669153,12.2658885 28.5328976,12.4823345 C29.3966422,12.6987805 30.1573905,13.1189341 30.8151653,13.7428079 C31.47294,14.3666817 31.9214161,15.0987675 32.1606069,15.9390873 C32.3997977,16.7794071 32.3997977,17.6197143 32.1606069,18.460034 C31.9214161,19.3003538 31.4762621,20.0324396 30.8251315,20.6563134 L28.2139781,23.1581621 C27.5628476,23.7820359 26.7987772,24.2085555 25.9217442,24.4377336 C25.0447112,24.6669117 24.1676914,24.6669117 23.2906584,24.4377336 C22.4136254,24.2085555 21.6561992,23.7820359 21.018357,23.1581621 C20.739301,22.8907876 20.5997752,22.5724895 20.5997752,22.203258 Z" id="link-4---fontello" fill="#FFFFFF"></path>
                </g>
                <g id="Plant" transform="translate(159.000000, 179.000000)">
                    <g id="Succulents" transform="translate(13.000000, 0.000000)">
                        <path d="M3.38092413,0.208187006 C12.213925,21.197225 27.2292006,35.7805339 35.1818951,57.6048833 C39.8977667,70.5473636 41.863552,84.6195065 41.9827844,99.0319481 C42.0475621,106.860255 41.9112966,114.693588 41.8746494,122.521895 C41.8390346,130.156002 41.6315393,137.74129 40.9835037,145.326577 C40.3323712,152.952069 39.603299,160.486743 39.2817329,168.159259 C39.0313966,174.137461 38.9170678,181.09097 36.890634,186.544007 C35.2791907,190.880662 31.1834821,191.51603 30.0967128,186.256476 C29.4928087,183.332706 29.5689419,180.068279 29.6355262,177.063384 C29.7209502,173.208101 29.9452206,169.358561 30.0595494,165.503996 C30.5191876,150.036197 29.9232839,134.565527 30.2347849,119.091626 C30.5390596,103.9731 32.4823921,88.871087 30.3320805,73.8534305 C28.5564992,61.4519104 24.045542,50.802498 18.8615156,40.5931767 C13.873887,30.7708195 8.44546012,21.187174 5.07495258,10.0143908 C4.10715753,6.80560332 3.35898744,3.48051124 3,0.0301404047 C3.15691184,-0.0427294746 3.28388655,0.0164997376 3.38092413,0.208187006 Z" id="Thi-Succs!" fill="#C1DEE2"></path>
                        <path d="M0.973588404,41.6169557 C2.7226644,42.8799919 3.70001184,44.7275773 4.88222633,46.55055 C6.35238241,48.8169596 8.08078375,50.8630865 9.55056393,53.131137 C12.6152999,57.8596264 15.3078921,62.8785444 18.1016022,67.7986018 C23.4055915,77.1374401 27.4326388,87.0907728 29.4271794,97.8948808 C31.4946451,109.09156 32.052109,120.648403 32.9193169,132.012037 C33.8391512,144.05621 34.7653759,156.188167 34.8871684,168.278693 C34.9416743,173.695515 35.2345026,179.445837 34.5841907,184.824509 C34.1793433,188.173053 32.6682138,191.026883 29.2614062,190.999809 C22.0249003,190.94238 18.6274903,182.927289 17.2080811,176.353675 C15.118813,166.674363 14.7019367,156.392862 15.0327312,146.494087 C15.432316,134.55821 17.5039166,122.801595 18.4004449,110.911661 C19.3499755,98.3247808 18.8135622,85.9602344 14.4861685,74.1088605 C12.2999174,68.1197961 9.76257314,62.2743052 7.48422591,56.3250312 C6.51402064,53.7919851 5.71936199,51.1900238 4.40896463,48.831317 C2.95121334,46.2076145 1.14161698,43.8259359 -3.0475622e-14,41 C0.324404167,41.2059254 0.649184237,41.4114405 0.973588404,41.6169557 Z" id="Thi-Succs!" fill="#89C5CC"></path>
                        <path d="M84.3341427,16.5176702 C84.5560133,16.345237 84.7781571,16.1728402 85,16 C84.3609397,18.6926575 83.2065589,20.8798938 82.3241537,23.3413066 C81.5309592,25.5541267 81.1289139,28.058225 80.5946654,30.4769505 C79.3401416,36.1577567 77.8904265,41.7105156 76.7055048,47.4397171 C74.3598951,58.7767524 74.8035283,70.9901843 76.3418843,83.5681524 C77.7947507,95.4496261 80.092478,107.312713 81.1873452,119.191609 C82.0949201,129.04307 82.4850091,139.201741 81.6192928,148.601 C81.0309846,154.984369 79.1025548,162.605994 73.8481376,161.961759 C71.3744617,161.658503 70.0840672,158.681129 69.5641892,155.320205 C68.7291114,149.921644 68.5543005,144.245802 68.2287956,138.877693 C67.5023548,126.895908 67.3576487,114.950973 67.2142162,103.092499 C67.078414,91.904007 66.7045185,80.493842 67.4521172,69.5872699 C68.1731866,59.0630547 70.4284885,49.5797393 73.6530782,40.8297246 C75.3514544,36.2198206 76.9696914,31.5020505 78.8779164,27.1084404 C79.7930343,25.0009936 80.9110333,23.1387509 81.826535,21.0329683 C82.5626976,19.3391662 83.148338,17.6010976 84.3341427,16.5176702 Z" id="Thi-Succs!" fill="#C1DEE2"></path>
                        <path d="M3.20880772,76.3018223 C4.16572159,74.6953252 6.27206517,79.9934093 6.59263271,80.6597751 C6.45704992,80.3283084 6.32092787,79.9973172 6.18360206,79.666614 C8.08298767,82.8249267 9.82062484,86.1127294 10.9009829,89.7341519 C11.9700503,93.3191128 12.888301,96.9765376 13.89141,100.586979 C15.7735895,107.360999 18.2016657,113.942756 19.9069626,120.7778 C21.5685818,127.438224 21.9875459,133.985891 21.5852981,140.875198 C21.1672391,148.035491 20.9114736,155.305643 21.3991881,162.462075 C21.632116,165.880018 22.7427231,169.063767 23.5039187,172.354313 C24.2660416,175.648102 24.8662939,178.985809 25.7672782,182.238759 C25.974095,181.814996 26.0004407,183.231705 25.9999945,183.339248 C25.99434,184.151918 25.8808641,184.833382 25.6194022,185.603962 C24.9475372,187.585538 23.69062,189.268993 21.7779741,189.815552 C18.3215161,190.803119 15.1122443,187.659032 13.9975999,184.339008 C12.398575,179.575285 11.5174472,174.310953 10.7554023,169.304056 C10.0567643,164.712777 9.89144111,160.094092 10.0990013,155.439587 C10.5078659,146.260651 12.1689639,137.201885 12.618303,128.025744 C13.1073521,118.035719 11.1280407,108.649277 9.47082403,98.9248264 C8.67258323,94.2391921 7.90974363,89.5977685 6.35630439,85.1336672 C5.7273694,83.3259909 4.90736765,81.7307159 4.04759418,80.0614309 C3.55838288,79.1117083 2.56905129,77.4176151 3.20880772,76.3018223 Z" id="Thi-Succs!" fill="#C1DEE2"></path>
                        <path d="M31.2520927,60.6970481 C30.8556379,72.1418193 30.1720216,83.4997745 28.6461885,94.8239462 C27.0889362,106.380282 25.300327,117.896941 23.8019539,129.46349 C22.3433779,140.722452 20.8145443,152.168401 21.0183676,163.584496 C21.1684795,171.99346 19.7741408,186.218697 29.1133695,190.368969 C38.572085,194.57188 40.6010206,176.62338 41.2221153,170.699078 C42.4123367,159.332874 42.027006,147.846855 41.4493767,136.418583 C40.8563654,124.689401 39.8664321,113.01993 38.6395466,101.333567 C37.2768349,88.3528226 36.2076085,75.3135458 35.3494633,62.2958749 C34.92489,55.8569635 34.820295,49.4286586 34.9374389,42.9881759 C35.048171,36.9106701 34.8172608,30.7703111 32.6564941,25 C32.5432773,25.0821019 32.4308129,25.1642038 32.3175887,25.2459129" id="Thi-Succs!" fill="#69A1AC"></path>
                        <path d="M80.0827466,96.9552251 C78.3816844,99.4332953 76.6669438,101.887253 75.0605101,104.512188 C72.1861393,109.208575 69.5869207,114.431593 68.8049844,121.146824 C67.1686355,135.200365 68.4814231,150.378956 68.7982735,164.862679 C68.863082,167.822444 68.4887518,170.692884 69.6553203,173.509621 C70.713019,176.063863 72.6905254,178.01037 74.5755064,177.999958 C78.6108036,177.976942 77.9951288,168.09535 78.0017787,163.745849 C78.0139471,156.122577 77.1591232,148.422037 77.232697,140.805889 C77.3061571,133.260434 77.7650203,125.694154 78.8589994,118.527917 C79.96657,111.274547 81.5885624,104.309427 83.7291347,97.809562 C84.0261843,96.9075488 86.1579416,89.9374968 84.1438969,91.1387197" id="Thi-Succs!" fill="#89C5CC"></path>
                        <path d="M62.262195,22 C59.6091513,22 59.625416,35.2259973 59.5456053,36.9248132 C59.257379,43.055394 59.3250857,49.1876151 59.1427693,55.3194261 C58.7437159,68.7008304 58.2535042,82.1995075 56.243485,95.4263249 C55.1613125,102.546754 53.9066581,109.63561 52.557063,116.701913 C51.2036854,123.788718 49.3869518,130.866913 48.4965519,138.043518 C47.6417075,144.942523 48.1247324,151.977253 48.2419898,158.910292 C48.3592472,165.885155 48.5699324,172.87396 49.4837837,179.787726 C49.7092206,181.494333 49.9736172,183.194789 50.256548,184.891145 C50.4921976,186.304569 50.3548929,188.057511 50.7535682,189.400818 C51.3928102,191.552324 54.1328514,192.256371 55.9779537,191.920134 C60.9704721,191.008604 64.1594958,184.739838 65.8650239,180.159637 C68.0429859,174.311167 69.1985389,167.967363 70.3389619,161.803978 C71.6310631,154.821324 72.3883191,147.732059 72.7434956,140.623111 C73.4655743,126.17518 72.5388625,111.711667 71.5039711,97.310071 C70.928275,89.3006645 70.263312,81.3265219 69.2458201,73.3667309 C68.2324891,65.4409736 66.9324447,57.5504802 66.0859217,49.6013503 C65.4708876,43.8246382 64.8649315,38.0401352 64.4666346,32.2412807 C64.3713156,30.8586094 64.2911267,22 62.262195,22" id="Thi-Succs!" fill="#69A1AC"></path>
                        <path d="M58.9407927,118.138703 C58.5083549,104.252695 52.9265288,43.2589078 51.6565806,26.4671323 C51.3390091,22.2641696 48.2815387,4.76463908 47.8849122,-1.2490009e-14 C46.809561,1.346742 46.901454,22.3094454 46.9132785,27.1261944 C46.9257786,31.8908335 46.3348929,36.5764535 46.0308351,41.3154647 C45.7210339,46.1510074 38.5722965,108.600882 37.6445823,113.247206 C35.7989512,122.490734 34.5638007,131.976445 33.6110862,141.427558 C32.6830341,150.639478 31.2401108,160.357975 32.4820181,169.618161 C32.7674946,171.749969 33.2191894,173.847606 33.9546715,175.805999 C34.749276,177.922003 35.2938774,179.878687 35.9317231,182.09293 C36.9580872,185.659469 38.8148671,188.78948 41.667943,190.261798 C47.51734,193.280756 50.6582574,186.44667 52.2505069,180.496744 C54.7934439,170.994802 56.4255588,161.337812 57.190771,151.358766 C58.0374031,140.318301 59.2870808,129.255197 58.9407927,118.138703" id="Thi-Succs!" fill="#89C5CC"></path>
                    </g>
                    <g id="Planter" transform="translate(0.000000, 159.000000)">
                        <rect id="Vase" fill="#FFFFFF" x="10" y="0" width="91" height="91" rx="2"></rect>
                        <rect id="Leg" fill="#C5CFD6" x="0" y="10" width="10" height="113" rx="2"></rect>
                        <rect id="Leg" fill="#C5CFD6" x="50" y="10" width="10" height="113" rx="2"></rect>
                        <rect id="Leg" fill="#C5CFD6" x="101" y="10" width="10" height="113" rx="2"></rect>
                    </g>
                </g>
                <g id="Group" transform="translate(210.000000, 28.000000)">
                    <g id="Group-55" transform="translate(20.000000, 450.000000)">
                        <mask id="mask-14" fill="white">
                            <use xlink:href="#path-13"></use>
                        </mask>
                        <g id="Clip-54"></g>
                    </g>
                    <path d="M96.9834485,216.512336 C96.195278,186.116611 81.2033192,205.039288 67.2312054,215.327438 C61.353364,219.660167 58.4013071,229.229765 58.3081597,237.190946 C58.2150123,245.152128 65.7169626,316.845591 64.131068,331.716298 C64.040309,332.582368 63.9782107,333.388955 63.9161124,334.195542 C60.2714208,345.544866 57.4817749,350.784113 52.9032206,363.037576 C47.6989068,376.975592 34.4910795,445.956638 40.5647693,450.969851 C42.869571,452.870922 75.6717952,364.300991 83.9475857,345.906521 C84.9889261,344.374244 85.7054448,342.815794 85.9108468,341.431033 C89.4456722,317.790178 97.4109713,233.074735 96.9834485,216.512336" id="Fill-56" fill="#D4A181"></path>
                    <path d="M39.5090172,443 C39.3684595,446.26539 36.9860062,451.534103 37.0000619,453.852336 C37.0164603,456.17057 52.3021121,457.672456 60.1756868,456.698652 C64.4275578,456.17057 50.9785269,452.154236 48.3196434,449.998303 C45.6654452,447.847215 43.585191,443 43.585191,443 L39.5090172,443" id="Fill-57" fill="#D4A181"></path>
                    <path d="M62.4531669,0.397970858 C51.0373013,-0.812092275 31.5773047,-1.02129769 24.9075477,26.9123798 C18.235413,54.8460572 24.7054339,54.5726638 17.4126908,62.6199402 C10.1223254,70.6672166 7.75878236,80.5902098 9.13315651,89.6954 C10.6335546,99.6231478 -7.30226589,112.032833 3.45494634,126.30397 C14.2525813,140.629786 108.019139,151.708164 98.2938963,96.8654401 C95.5713039,81.5221248 80.9929511,79.1138852 83.1900475,68.0854316 C90.7181938,30.3452504 83.9081461,2.6778344 62.4531669,0.397970858" id="Fill-58" fill="#514589"></path>
                    <path d="M83,36.4987891 C83,43.9553323 80.3129648,50 77.001206,50 C73.6870352,50 71,43.9553323 71,36.4987891 C71,29.0446677 73.6870352,23 77.001206,23 C80.3129648,23 83,29.0446677 83,36.4987891" id="Fill-59" fill="#20211F"></path>
                    <path d="M89,36.4987891 C89,43.9553323 86.3129648,50 82.998794,50 C79.6870352,50 77,43.9553323 77,36.4987891 C77,29.0446677 79.6870352,23 82.998794,23 C86.3129648,23 89,29.0446677 89,36.4987891" id="Fill-60" fill="#20211F"></path>
                    <polygon id="Fill-61" fill="#20211F" points="77 50 83 50 83 23 77 23"></polygon>
                    <path d="M83,35.9988296 C83,42.625573 80.5379235,48 77.5012022,48 C74.4620765,48 72,42.625573 72,35.9988296 C72,29.3720862 74.4620765,24 77.5012022,24 C80.5379235,24 83,29.3720862 83,35.9988296" id="Fill-62" fill="#343431"></path>
                    <path d="M81,35.9988 C81,41.523821 79.2102549,46 76.9988542,46 C74.7897451,46 73,41.523821 73,35.9988 C73,30.4785791 74.7897451,26 76.9988542,26 C79.2102549,26 81,30.4785791 81,35.9988" id="Fill-63" fill="#20211F"></path>
                    <path d="M69.6858973,47.1966321 C70.4891594,42.0724076 67.4667963,37.0615823 62.3993326,36.154389 C56.8718405,35.1645089 51.4921295,39.0484301 50.5839904,44.5435643 C50.1334962,47.274594 47.089681,67.0792846 50.872402,83.1559778 C52.3406794,89.400019 59.7464224,91.9774873 65.343038,88.318002 C68.8635666,86.0145816 70.6846119,81.8259002 69.7621714,77.8994543 C67.6455638,68.912571 68.3916203,55.4558708 69.6858973,47.1966321" id="Fill-64" fill="#E7BC93"></path>
                    <path d="M85.2364131,31.2831546 C88.3021249,48.9601911 82.0387654,65.3992125 68.20708,68.5050262 C54.3753946,71.6084452 40.6780439,59.795817 37.6123322,42.1163859 C34.5490193,24.4369548 43.2783816,7.58845449 57.1124659,4.48264083 C70.9441513,1.37682718 82.1731002,13.6037235 85.2364131,31.2831546" id="Fill-65" fill="#E7BC93"></path>
                    <path d="M140.791124,136.838094 C139.835473,135.052643 138.356376,134.316204 136.882081,134.766119 C131.587584,136.383443 123.186022,137.882369 117.238418,138.067071 C116.234745,134.122031 114.827681,130.013601 113.629516,126.4427 C110.654513,117.553336 106.161995,103.108712 97.2898112,86.2250781 C93.0638184,78.1787121 87.046581,75.5763118 76.9282097,76.0546419 C72.9495336,76.2440796 82.9142324,95.1712731 85.1136696,100.378442 C87.4667792,105.952646 91.1068957,115.983372 97.2561953,131.550414 C99.1434853,136.32898 101.357329,142.937987 104.245891,147.763912 C107.600273,156.53251 118.554238,156.880601 126.607636,151.23299 C129.971622,148.874491 141.986888,143.297919 141.986888,143.297919 C141.986888,143.297919 142.212594,139.499693 140.791124,136.838094" id="Fill-66" fill="#D4A181"></path>
                    <path d="M65.8588499,258.018358 C63.2793122,227.625953 45.5158414,194.08319 31.0963939,205.166554 C25.0285903,209.832608 23.6991548,225.910387 24.052549,233.888602 C24.389115,241.471831 30.0434232,311.881417 31.1444747,331.699653 L31.1324545,331.702033 C32.0387786,347.691773 32.1926373,359.59366 31.947425,374.705393 C31.7022126,389.817125 41.7318784,454.178211 49.5930977,456.990692 C52.6269994,458.078089 53.954031,363.564922 55.7306184,345.595499 C58.641914,320.60915 67.1979017,273.824882 65.8588499,258.018358" id="Fill-67" fill="#E7BC93"></path>
                    <path d="M46.8595238,450 C46.7860227,453.267248 44.9603506,458.535048 45.0006576,460.852881 C45.0385937,463.170713 57.1378207,464.672339 63.3522189,463.698704 C66.7095588,463.170713 56.0281914,459.152653 53.903773,457.001937 C51.7817255,454.846377 50.0817165,450 50.0817165,450 L46.8595238,450" id="Fill-68" fill="#E7BC93"></path>
                    <path d="M87.8239545,29.5602565 C86.8600078,22.8578482 83.3749696,16.4358852 79.8444847,11.6211805 C77.5075717,8.4349442 73.8574904,4.62183003 70.4346423,4.00909228 C68.2149337,3.61081274 66.3659738,3.52832881 64.844708,3.66972983 C62.2996972,2.90616433 58.2956108,2.73176974 52.0335448,3.48119514 C46.9339556,4.09628958 41.4947127,7.90940374 38.0096745,11.0956401 C32.7474342,15.9103448 30.6592816,22.8578482 29.2217332,29.5602565 C27.8750781,35.8455319 32.8478952,39.2273729 39.1099611,37.5894778 C58.2429884,32.581525 65.0599815,22.7258739 67.5284505,15.9786886 C73.3743211,20.4328207 80.6457804,26.6379688 84.0590608,33.9389748 C85.9486834,37.983044 88.7281031,35.8455319 87.8239545,29.5602565" id="Fill-69" fill="#514589"></path>
                    <path d="M39.5595615,26 C38.6983815,26 38,25.287583 38,24.4061179 C38,9.33185752 46.9397555,2 65.3288963,2 C76.7837691,2 82.4062124,9.83900181 83.9185859,14.4709197 C84.1922759,15.3040853 83.7534281,16.2072852 82.9394361,16.487422 C82.1301629,16.7699738 81.2406702,16.3183739 80.9693395,15.4827933 C79.7188591,11.6574764 75.0142213,5.18776414 65.3288963,5.18776414 C48.808398,5.18776414 41.1144041,11.2952304 41.1144041,24.4061179 C41.1144041,25.287583 40.418382,26 39.5595615,26" id="Fill-70" fill="#20211F"></path>
                    <path d="M42,36.4987891 C42,43.9553323 39.3129648,50 36.001206,50 C32.6870352,50 30,43.9553323 30,36.4987891 C30,29.0446677 32.6870352,23 36.001206,23 C39.3129648,23 42,29.0446677 42,36.4987891" id="Fill-71" fill="#20211F"></path>
                    <path d="M47,36.4987891 C47,43.9553323 44.3153769,50 41.001206,50 C37.6870352,50 35,43.9553323 35,36.4987891 C35,29.0446677 37.6870352,23 41.001206,23 C44.3153769,23 47,29.0446677 47,36.4987891" id="Fill-72" fill="#20211F"></path>
                    <polygon id="Fill-73" fill="#20211F" points="36 50 42 50 42 23 36 23"></polygon>
                    <path d="M41,35.9988296 C41,42.625573 38.5379235,48 35.5012022,48 C32.4644809,48 30,42.625573 30,35.9988296 C30,29.3720862 32.4644809,24 35.5012022,24 C38.5379235,24 41,29.3720862 41,35.9988296" id="Fill-74" fill="#343431"></path>
                    <path d="M39,35.9988 C39,41.523821 37.2102549,46 34.9988542,46 C32.7920367,46 31,41.523821 31,35.9988 C31,30.4785791 32.7920367,26 34.9988542,26 C37.2102549,26 39,30.4785791 39,35.9988" id="Fill-75" fill="#20211F"></path>
                    <path d="M98.5434094,268.164026 L22.6345682,277 C22.6345682,277 15.2224102,232.945986 25.2633124,206.751515 C31.924062,189.362148 34.3015466,173.853482 33.5833234,158.406557 C33.3628787,153.519582 32.831915,148.630232 32.0188769,143.679142 C30.3928007,133.684352 27.6716119,123.471097 24.137385,112.566826 C22.2292343,106.644515 21.4801963,100.190289 22.385679,93.8927875 C23.8861254,83.4895623 33.6141383,76 43.8423,76 L72.4906342,76 C92.226364,76 93.7599956,98.1219918 93.7908105,113.476307 C93.7908105,125.662874 91.2260664,138.823037 91.1952515,151.04285 C91.1644366,167.648591 95.1679975,175.199894 97.1377779,191.61804 C97.7327416,196.412405 98.5125945,201.111785 99.1075583,205.811164 C103.672898,239.150877 98.5434094,268.164026 98.5434094,268.164026" id="Fill-76" fill="#2C96DF"></path>
                    <path d="M78.6059181,158.97532 L64.0352472,156.024201 C63.3446386,155.884589 62.8881346,155.188934 63.0239153,154.478836 L67.8909501,129.062149 C68.0267308,128.352052 68.7056342,127.885072 69.3962428,128.024685 L83.9669137,130.973396 C84.6598634,131.113008 85.1116853,131.81107 84.9759046,132.521168 L80.1112108,157.935448 C79.9754301,158.647952 79.2965267,159.114932 78.6059181,158.97532" id="Fill-78" fill="#20211F"></path>
                    <path d="M82.7103696,142.137863 C78.9768478,140.961138 72.0370575,137.839949 66.2538988,136.012678 C64.1828868,135.359739 62.6581279,135.216236 61.5323714,135.409965 C60.5966159,135.476933 59.5254847,135.909834 58.2881025,136.156181 C49.1229242,137.990627 32.8232044,139.172135 22.085767,139.157784 C22.9312719,136.605823 23.6912763,134.104088 24.4061554,131.958719 C29.7309364,115.958138 32.8422045,105.664192 34.8989665,99.9312486 C36.8227277,94.5714129 45.7551546,75 41.8150067,75 C31.7948234,75 25.9760396,77.9131102 22.1878925,86.2338905 C14.2363463,103.691026 10.4933245,118.479007 7.98055991,127.589054 C6.50092631,132.956065 4.62941542,139.504583 4.19003787,144.909862 C3.94541144,145.974175 3.94066142,147.198734 4.15441266,148.557229 C4.45128939,152.429417 6.04254864,155.122489 9.9375713,155.356878 C16.7966112,156.947369 29.5076851,155.423846 39.0267405,152.584879 C43.5606419,151.231167 55.107959,146.770617 60.7581169,144.560671 C62.7056282,148.219997 65.0948921,149.219734 67.6124067,149.942032 C71.0039265,150.915461 76.3667077,152.25243 80.1477297,150.628455 C84.3657542,148.813142 87.2252708,143.563325 82.7103696,142.137863" id="Fill-79" fill="#E7BC93"></path>
                    <path d="M81.2186449,131 L81.1141848,130.985785 L80.8435382,130.504858 C82.0614481,126.117287 80.2452666,121.018986 76.522688,118.386917 C74.1842059,116.733286 71.2854378,116.027294 68.4768852,115.342624 C67.7883981,115.174418 67.099911,115.008581 66.4185461,114.826161 C62.1974079,113.705577 59.0968418,112.234367 56.663396,110.196941 C53.6174341,107.652529 51.7822598,104.10125 51.7442743,100.699223 C51.7229075,98.6523217 52.3093085,96.6385876 52.8719687,94.6888191 C53.6174341,92.1183466 54.3249139,89.687651 53.7218942,87.2498481 C52.7936236,83.4758733 49.0734191,81.1541563 45.5597608,79.3820702 L45.0873162,79.1427912 C41.5143055,77.3470141 37.8225901,75.4896405 36.0538904,71.938361 C34.2448312,68.301794 35.1137494,63.9829264 36.0752573,60.6259131 C36.2366956,60.0644366 36.4076304,59.500591 36.5785651,58.9320073 C37.5187061,55.8332257 38.4897104,52.6302038 37.9674098,49.4556111 C37.9341725,49.2447613 38.0766181,49.0433879 38.2926606,49.0078514 C38.5158254,48.9628385 38.7057529,49.11683 38.7413643,49.3300489 C39.2921539,52.682324 38.2950347,55.9753717 37.3287786,59.1594408 C37.1578439,59.7232864 36.9869092,60.2823937 36.8278449,60.839132 C35.9066966,64.0611067 35.0638934,68.1928154 36.754248,71.5901034 C38.4066171,74.9092112 41.9820019,76.7073574 45.438682,78.4462761 L45.9135007,78.6855551 C49.5862233,80.5381905 53.4749884,82.9807316 54.4816041,87.0626892 C55.1368539,89.7042347 54.3676476,92.3505183 53.6245563,94.9067762 C53.0737666,96.8020554 52.5063583,98.7589312 52.5277251,100.689747 C52.5633365,103.866709 54.2964248,107.197662 57.1643297,109.599928 C59.5099341,111.559173 62.5155364,112.980633 66.6203441,114.072787 C67.2969607,114.25047 67.9783256,114.416307 68.6644386,114.584513 C71.5418399,115.285766 74.516579,116.01071 76.9761399,117.749629 C80.9574947,120.566488 82.9018772,126.020154 81.5961258,130.713339 L81.2186449,131" id="Fill-80" fill="#20211F"></path>
                    <path d="M150,123 L148.286294,144.323316 L147.228246,157.642909 C147.173805,158.394455 146.544184,159 145.772543,159 L133.227457,159 C132.458183,159 131.828562,158.394455 131.771754,157.642909 L130.713706,144.323316 L129,123 L150,123" id="Fill-81" fill="#E8E8E3"></path>
                    <path d="M150.203735,123.66 L128.793852,123.66 C128.357113,123.66 128,123.364 128,122.998 C128,122.634 128.357113,122.34 128.793852,122.34 L150.203735,122.34 C150.642887,122.34 151,122.634 151,122.998 C151,123.364 150.642887,123.66 150.203735,123.66" id="Fill-82" fill="#CAC9C4"></path>
                    <polyline id="Fill-83" fill="#89C5CC" points="149 131 147.899544 144 130.100456 144 129 131 149 131"></polyline>
                    <path d="M152.388317,142.916019 C152.822791,138.207978 152.698989,132.370783 152.981631,129.332244 C153.322669,125.656434 148.83311,126.773473 146.329047,129.593936 C144.084268,132.118783 143.432558,136.412478 143.110206,139.157825 C142.836908,141.479134 142.857931,143.744712 145.775444,146.301059 C148.531781,148.714445 151.79734,149.320214 152.388317,142.916019" id="Fill-84" fill="#D4A181"></path>
                    <path d="M134.725208,117 C134.099959,115.194014 133.882069,113.27967 134.059696,111.350877 C134.19943,109.412453 134.872047,107.522188 135.568347,105.860681 C136.314384,104.223254 136.970422,102.732714 137.557777,101.124183 C138.135659,99.5156519 138.597491,97.8059856 139.270108,96 C139.900094,97.8083935 140.117984,99.7227382 139.940357,101.651531 C139.798255,103.589955 139.128006,105.477812 138.426969,107.139319 C137.678564,108.776746 137.020158,110.267286 136.432802,111.875817 C135.85492,113.484348 135.393088,115.194014 134.725208,117" id="Fill-85" fill="#CAC9C4"></path>
                    <path d="M141.725241,112 C141.099963,110.194014 140.882063,108.27967 141.059699,106.350877 C141.199439,104.412453 141.869718,102.524596 142.568419,100.860681 C143.31449,99.2208462 143.970558,97.7303062 144.55794,96.124183 C145.135849,94.5156519 145.597702,92.8059856 146.27035,91 C146.897996,92.8059856 147.118264,94.7227382 146.940629,96.6515308 C146.79852,98.5899553 146.128241,100.477812 145.427172,102.139319 C144.678733,103.776746 144.020296,105.267286 143.432913,106.875817 C142.852636,108.484348 142.393152,110.194014 141.725241,112" id="Fill-86" fill="#CAC9C4"></path>
                </g>
            </g>
        </g>
    </g>
</svg>