<?xml version="1.0" encoding="utf-8"?>
<!-- Generator: Adobe Illustrator 21.0.0, SVG Export Plug-In . SVG Version: 6.00 Build 0)  -->
<svg version="1.1" id="Layer_1" xmlns="http://www.w3.org/2000/svg" xmlns:xlink="http://www.w3.org/1999/xlink" x="0px" y="0px"
	 viewBox="0 0 409.9 410" style="enable-background:new 0 0 409.9 410;" xml:space="preserve">
<style type="text/css">
	.st0{clip-path:url(#SVGID_2_);fill:#215378;}
</style>
<g>
	<g>
		<defs>
			<rect id="SVGID_1_" width="409.9" height="410"/>
		</defs>
		<clipPath id="SVGID_2_">
			<use xlink:href="#SVGID_1_"  style="overflow:visible;"/>
		</clipPath>
		<path class="st0" d="M394.6,123.6l-18.1,18.1L267.9,33.1L286,15c20-20,52.4-20,72.4,0l36.2,36.2
			C414.6,71.2,414.6,103.6,394.6,123.6L394.6,123.6z M141.2,340.8c-5,5-5,13.1,0,18.1c5,5,13.1,5,18.1,0l199.2-199.1l-18.1-18.1
			L141.2,340.8z M50.7,250.3c-5,5-5,13.1,0,18.1c5,5,13.1,5,18.1,0L267.9,69.3l-18.1-18.1L50.7,250.3z M286,87.4L86.9,286.5
			c-10,10-10,26.2,0,36.2c10,10,26.2,10.1,36.2,0l199.1-199.1L286,87.4z M123,377c-6.1-6.1-9.1-13.9-10.2-21.9
			c-2.6,0.4-5.2,0.8-7.9,0.8c-13.7,0-26.5-5.4-36.2-15c-9.7-9.7-15-22.5-15-36.2c0-2.5,0.4-4.9,0.7-7.3c-8.3-1.1-15.9-4.8-21.9-10.8
			c-0.6-0.6-0.8-1.4-1.3-2L0,409.6l124.7-31.2C124.2,377.9,123.6,377.5,123,377L123,377z M123,377"/>
	</g>
</g>
</svg>
