<svg xmlns="http://www.w3.org/2000/svg" xmlns:xlink="http://www.w3.org/1999/xlink" version="1.1" style="" xml:space="preserve" width="408.8" height="319.2"><rect id="backgroundrect" width="100%" height="100%" x="0" y="0" fill="none" stroke="none"/>
<style type="text/css">
	.st0{fill:#215378;}
	.st1{display:none;}
	.st2{display:inline;fill:#215378;}
</style>



<g class="currentLayer" style=""><title>Layer 1</title><g id="svg_1" class="selected">
	<path class="st0" d="M31.6,37.6c1.6,0,3.1-0.6,4.2-1.8c1.1-1.1,1.8-2.7,1.8-4.2c0-1.6-0.6-3.1-1.8-4.2c-1.1-1.1-2.7-1.8-4.2-1.8   c-1.6,0-3.1,0.6-4.2,1.8c-1.1,1.1-1.8,2.7-1.8,4.2c0,1.6,0.6,3.1,1.8,4.2C28.5,37,30,37.6,31.6,37.6L31.6,37.6z" id="svg_2"/>
	<path class="st0" d="M50.8,37.6c1.6,0,3.1-0.6,4.2-1.8c1.1-1.1,1.8-2.7,1.8-4.2c0-1.6-0.6-3.1-1.8-4.2c-1.1-1.1-2.7-1.8-4.2-1.8   c-1.6,0-3.1,0.6-4.2,1.8c-1.1,1.1-1.8,2.7-1.8,4.2c0,1.6,0.6,3.1,1.8,4.2C47.7,37,49.2,37.6,50.8,37.6L50.8,37.6z" id="svg_3"/>
	<path class="st0" d="M70,37.6c1.6,0,3.1-0.6,4.2-1.8c1.1-1.1,1.8-2.7,1.8-4.2c0-1.6-0.6-3.1-1.8-4.2c-1.1-1.1-2.7-1.8-4.2-1.8   c-1.6,0-3.1,0.6-4.2,1.8C64.6,28.5,64,30,64,31.6s0.6,3.1,1.8,4.2C66.9,37,68.4,37.6,70,37.6L70,37.6z" id="svg_4"/>
	<path class="st0" d="M95.6,37.6h243.2c3.3,0,6-2.7,6-6s-2.7-6-6-6H95.6c-3.3,0-6,2.7-6,6C89.6,34.9,92.3,37.6,95.6,37.6L95.6,37.6z   " id="svg_5"/>
	<path class="st0" d="M364.4,37.6h12.8c3.3,0,6-2.7,6-6s-2.7-6-6-6h-12.8c-3.3,0-6,2.7-6,6C358.4,34.9,361.1,37.6,364.4,37.6   L364.4,37.6z" id="svg_6"/>
	<path class="st0" d="M377.2,0H31.6C14.2,0,0,14.2,0,31.6v256c0,17.4,14.2,31.6,31.6,31.6h345.6c17.4,0,31.6-14.2,31.6-31.6v-256   C408.8,14.2,394.6,0,377.2,0L377.2,0z M31.6,12h345.6c10.8,0,19.6,8.8,19.6,19.6v19.6H12V31.6C12,20.8,20.8,12,31.6,12L31.6,12z    M377.2,307.2H31.6c-10.8,0-19.6-8.8-19.6-19.6V63.2h384.8v224.4C396.8,298.4,388,307.2,377.2,307.2L377.2,307.2z" id="svg_7"/>
</g><g id="svg_8" class="">
	<g class="st1" id="svg_9">
		<path class="st2" d="M28.168636614084242,209.24372720718384 l4.220281738042831,-14.265830516815186 c4.220281738042831,7.90107536315918 9.225732171535492,11.193190097808838 13.446013909578323,11.193190097808838 c2.15921391248703,0 3.533259129524231,-1.5363202095031745 5.00545043349266,-3.0726404190063477 c1.3740452170372008,-1.5363202095031745 1.3740452170372008,-4.828434944152832 1.3740452170372008,-7.90107536315918 c0,-1.5363202095031745 0,-3.0726404190063477 -0.6870226085186008,-3.0726404190063477 c-0.6870226085186008,0 -0.6870226085186008,-1.5363202095031745 -1.3740452170372008,-3.0726404190063477 c-0.6870226085186008,0 -0.6870226085186008,-1.5363202095031745 -2.15921391248703,-1.5363202095031745 c-0.6870226085186008,0 -1.3740452170372008,-1.5363202095031745 -2.15921391248703,-1.5363202095031745 c0,0 -0.6870226085186008,-1.5363202095031745 -1.3740452170372008,-1.5363202095031745 c0,0 0,0 -0.6870226085186008,0 h-0.6870226085186008 c-1.3740452170372008,-1.5363202095031745 -2.8462365210056304,-1.5363202095031745 -3.533259129524231,-3.0726404190063477 s-2.15921391248703,-1.5363202095031745 -3.533259129524231,-3.0726404190063477 s-2.15921391248703,-3.0726404190063477 -2.8462365210056304,-4.828434944152832 c-0.6870226085186008,-1.5363202095031745 -1.3740452170372008,-4.828434944152832 -2.15921391248703,-6.364755153656006 c-0.6870226085186008,-1.5363202095031745 -0.6870226085186008,-7.90107536315918 -0.6870226085186008,-11.193190097808838 c0,-7.90107536315918 1.3740452170372008,-15.80215072631836 4.220281738042831,-20.63058567047119 s6.3794956505298615,-7.90107536315918 10.599777388572694,-7.90107536315918 c2.8462365210056304,0 5.00545043349266,1.5363202095031745 7.753540867567063,3.0726404190063477 c2.8462365210056304,1.5363202095031745 5.00545043349266,4.828434944152832 7.066518259048462,7.90107536315918 l-3.533259129524231,14.265830516815186 c-4.220281738042831,-6.364755153656006 -7.753540867567063,-7.90107536315918 -11.384946084022522,-7.90107536315918 c-2.15921391248703,0 -3.533259129524231,1.5363202095031745 -4.220281738042831,3.0726404190063477 c-0.6870226085186008,1.5363202095031745 -1.3740452170372008,4.828434944152832 -1.3740452170372008,6.364755153656006 s0,1.5363202095031745 0,3.0726404190063477 s0.6870226085186008,1.5363202095031745 0.6870226085186008,3.0726404190063477 c0,1.5363202095031745 0.6870226085186008,1.5363202095031745 1.3740452170372008,1.5363202095031745 c0.6870226085186008,0 0.6870226085186008,1.5363202095031745 2.15921391248703,1.5363202095031745 c0.6870226085186008,0 1.3740452170372008,1.5363202095031745 2.15921391248703,1.5363202095031745 c0.6870226085186008,0 1.3740452170372008,1.5363202095031745 2.15921391248703,1.5363202095031745 c0,0 0,0 0.6870226085186008,0 c0,0 0,0 0.6870226085186008,0 c1.3740452170372008,1.5363202095031745 2.8462365210056304,1.5363202095031745 3.533259129524231,3.0726404190063477 s2.15921391248703,1.5363202095031745 3.533259129524231,3.0726404190063477 c1.3740452170372008,1.5363202095031745 2.15921391248703,3.0726404190063477 2.8462365210056304,4.828434944152832 c0.6870226085186008,1.5363202095031745 1.3740452170372008,4.828434944152832 2.15921391248703,6.364755153656006 c0.6870226085186008,3.0726404190063477 0.6870226085186008,6.364755153656006 0.6870226085186008,9.437395572662354 c0,9.437395572662354 -1.3740452170372008,15.80215072631836 -4.220281738042831,22.166905879974365 c-2.8462365210056304,4.828434944152832 -6.3794956505298615,7.90107536315918 -11.384946084022522,7.90107536315918 c-2.8462365210056304,0 -6.3794956505298615,-1.5363202095031745 -9.225732171535492,-3.0726404190063477 C33.174087047576904,217.36427688598633 31.014873135089875,214.07216215133667 28.168636614084242,209.24372720718384 z" id="svg_10"/>
		<path class="st2" d="M70.76403834223747,221.97323751449585 V95.11708307266235 h9.225732171535492 v49.16224670410156 c3.533259129524231,-11.193190097808838 7.753540867567063,-15.80215072631836 12.758991301059723,-15.80215072631836 c4.220281738042831,0 8.53870956301689,3.0726404190063477 10.599777388572694,9.437395572662354 c2.8462365210056304,6.364755153656006 3.533259129524231,14.265830516815186 3.533259129524231,25.459020614624023 v58.599642276763916 h-9.225732171535492 v-53.990681648254395 c0,-7.90107536315918 -0.6870226085186008,-12.729510307312012 -2.15921391248703,-17.338470935821533 c-1.3740452170372008,-4.828434944152832 -3.533259129524231,-6.364755153656006 -6.3794956505298615,-6.364755153656006 c-2.8462365210056304,0 -5.00545043349266,1.5363202095031745 -6.3794956505298615,6.364755153656006 s-2.8462365210056304,9.437395572662354 -2.8462365210056304,17.338470935821533 v52.23488712310791 h-9.225732171535492 V221.97323751449585 z" id="svg_11"/>
		<path class="st2" d="M116.7945531129837,176.10310554504395 c0,-7.90107536315918 0.6870226085186008,-17.338470935821533 2.8462365210056304,-23.70322608947754 s4.220281738042831,-12.729510307312012 7.753540867567063,-17.338470935821533 s7.066518259048462,-6.364755153656006 11.384946084022522,-6.364755153656006 s7.753540867567063,1.5363202095031745 11.384946084022522,6.364755153656006 s5.692473042011261,9.437395572662354 7.753540867567063,17.338470935821533 s2.8462365210056304,15.80215072631836 2.8462365210056304,23.70322608947754 c0,6.364755153656006 -0.6870226085186008,12.729510307312012 -1.3740452170372008,19.094265460968018 c-1.3740452170372008,6.364755153656006 -2.8462365210056304,11.193190097808838 -4.220281738042831,15.80215072631836 c-2.15921391248703,4.828434944152832 -4.220281738042831,7.90107536315918 -7.066518259048462,11.193190097808838 c-2.8462365210056304,3.0726404190063477 -5.692473042011261,3.0726404190063477 -8.53870956301689,3.0726404190063477 c-4.220281738042831,0 -7.753540867567063,-1.5363202095031745 -11.384946084022522,-6.364755153656006 c-3.533259129524231,-4.828434944152832 -5.692473042011261,-9.437395572662354 -7.753540867567063,-17.338470935821533 S116.7945531129837,184.00418090820312 116.7945531129837,176.10310554504395 zM126.02028528451919,176.10310554504395 c0,7.90107536315918 1.3740452170372008,15.80215072631836 3.533259129524231,20.63058567047119 s5.692473042011261,9.437395572662354 9.225732171535492,9.437395572662354 s7.066518259048462,-3.0726404190063477 9.225732171535492,-7.90107536315918 c2.15921391248703,-4.828434944152832 2.8462365210056304,-14.265830516815186 2.8462365210056304,-22.166905879974365 s-1.3740452170372008,-15.80215072631836 -3.533259129524231,-20.63058567047119 c-2.15921391248703,-6.364755153656006 -5.692473042011261,-7.90107536315918 -9.225732171535492,-7.90107536315918 s-6.3794956505298615,3.0726404190063477 -9.225732171535492,7.90107536315918 C126.02028528451919,160.3009548187256 126.02028528451919,166.44623565673828 126.02028528451919,176.10310554504395 z" id="svg_12"/>
		<path class="st2" d="M167.83051831722258,221.97323751449585 v-22.166905879974365 h10.599777388572694 v22.166905879974365 H167.83051831722258 z" id="svg_13"/>
		<path class="st2" d="M189.12821918129922,221.97323751449585 v-91.95973825454712 h9.225732171535492 v20.63058567047119 c1.3740452170372008,-7.90107536315918 3.533259129524231,-12.729510307312012 5.692473042011261,-17.338470935821533 c2.15921391248703,-3.0726404190063477 5.00545043349266,-4.828434944152832 7.753540867567063,-4.828434944152832 h0.6870226085186008 v22.166905879974365 h-0.6870226085186008 c-4.220281738042831,0 -7.753540867567063,3.0726404190063477 -9.912754780054092,9.437395572662354 c-2.8462365210056304,6.364755153656006 -3.533259129524231,15.80215072631836 -3.533259129524231,26.995340824127197 v34.89641618728638 H189.12821918129922 z" id="svg_14"/>
		<path class="st2" d="M218.1794609129429,147.57144451141357 v-19.094265460968018 h5.00545043349266 v-23.70322608947754 h9.225732171535492 v25.459020614624023 H243.69744351506233 v19.094265460968018 h-11.384946084022522 v44.33381175994873 c0,7.90107536315918 1.3740452170372008,11.193190097808838 5.00545043349266,11.193190097808838 c2.15921391248703,0 4.220281738042831,-1.5363202095031745 5.692473042011261,-3.0726404190063477 v17.338470935821533 c-2.15921391248703,3.0726404190063477 -5.00545043349266,4.828434944152832 -8.53870956301689,4.828434944152832 c-7.753540867567063,0 -12.071968692541123,-9.437395572662354 -12.071968692541123,-26.995340824127197 v-47.62592649459839 H218.1794609129429 V147.57144451141357 z" id="svg_15"/>
		<path class="st2" d="M248.40845568776132,222.8511347770691 l26.499443471431732,-120.7108736038208 h6.3794956505298615 l-26.499443471431732,120.7108736038208 H248.40845568776132 z" id="svg_16"/>
	</g>
	<rect x="272.6505391597748" y="205.95161247253418" class="st0" width="113.84946084022522" height="15.802150307704323" id="svg_17"/>
</g><g id="svg_18" class="">
	<path class="st0" d="M20.9,200.9l4.3-6.5c4.6,3.4,9.2,5.2,13.7,5.2c2,0,3.6-0.4,4.8-1.2c1.1-0.8,1.7-2,1.7-3.5   c0-0.6-0.1-1.1-0.4-1.6c-0.3-0.5-0.7-0.9-1.2-1.2c-0.5-0.3-1.1-0.7-1.8-1c-0.7-0.3-1.5-0.6-2.2-0.8c-0.8-0.2-1.6-0.5-2.5-0.8   c-0.2-0.1-0.3-0.1-0.4-0.1l-0.7-0.2c-1.5-0.4-2.8-0.8-3.8-1.2c-1-0.4-2.2-0.9-3.4-1.6c-1.3-0.7-2.3-1.5-3.1-2.3   c-0.8-0.8-1.4-1.9-2-3.1c-0.5-1.3-0.8-2.7-0.8-4.3c0-3.9,1.4-7,4.3-9.3c2.8-2.3,6.4-3.5,10.7-3.5c2.6,0,5.2,0.4,7.9,1.3   c2.7,0.8,5.2,2,7.4,3.5l-3.8,6.8c-4.3-2.6-8.3-4-11.8-4c-1.8,0-3.3,0.4-4.3,1.2c-1,0.8-1.6,1.9-1.6,3.2c0,0.5,0.1,0.9,0.3,1.3   c0.2,0.4,0.5,0.8,1,1.1c0.5,0.4,0.9,0.7,1.3,0.9c0.4,0.3,1,0.5,1.8,0.9c0.8,0.3,1.5,0.6,1.9,0.7c0.5,0.2,1.2,0.4,2.3,0.8   c0.1,0,0.2,0.1,0.4,0.1s0.3,0.1,0.4,0.1c1.5,0.4,2.7,0.9,3.7,1.3s2.2,1,3.5,1.7c1.3,0.7,2.3,1.5,3.1,2.3c0.8,0.8,1.4,1.8,2,3.1   c0.5,1.2,0.8,2.6,0.8,4c0,4.2-1.5,7.5-4.4,9.8s-6.6,3.4-11.2,3.4c-3.1,0-6.1-0.5-9.3-1.6C26.3,204.5,23.5,202.9,20.9,200.9z" id="svg_19"/>
	<path class="st0" d="M64,206.4v-58h9.6v22.6c3.4-4.9,7.7-7.3,13.1-7.3c4.7,0,8.3,1.5,11,4.4c2.6,2.9,4,6.8,4,11.8v26.7H92v-23.9   c0-3.3-0.8-5.8-2.4-7.6c-1.6-1.8-3.8-2.7-6.6-2.7c-2.8,0-5.1,0.9-6.8,2.8c-1.7,1.9-2.6,4.4-2.6,7.6v23.7H64z" id="svg_20"/>
	<path class="st0" d="M110.8,185.4c0-3.9,1-7.6,2.9-10.9c1.9-3.3,4.6-6,8.1-8c3.4-2,7.3-3,11.5-3c4.2,0,8,1,11.4,2.9   c3.4,1.9,6.1,4.6,8,7.9c1.9,3.3,2.9,7,2.9,11c0,3-0.6,5.8-1.7,8.4c-1.1,2.7-2.7,5-4.7,7c-2,2-4.3,3.6-7.1,4.7   c-2.8,1.2-5.8,1.7-9,1.7c-4.2,0-8-1-11.4-3s-6.1-4.6-8-8C111.8,193.1,110.8,189.4,110.8,185.4z M120.5,185.4c0,3.7,1.2,6.9,3.6,9.6   c2.4,2.7,5.5,4,9.1,4c3.8,0,6.9-1.3,9.2-3.9c2.3-2.6,3.5-5.8,3.5-9.6c0-3.8-1.2-7-3.6-9.6c-2.4-2.6-5.5-3.9-9.2-3.9   c-3.8,0-6.8,1.3-9.1,3.9C121.6,178.4,120.5,181.6,120.5,185.4z" id="svg_21"/>
	<path class="st0" d="M163.1,206.4v-10.2h10.5v10.2H163.1z" id="svg_22"/>
	<path class="st0" d="M185,206.4v-41.9h9.6v9.4c1.4-3.3,3.3-5.9,5.8-7.7c2.3-1.7,5-2.5,8.2-2.5c0.3,0,0.5,0,0.8,0v10.2h-0.5   c-4.3,0-7.8,1.4-10.4,4.2c-2.6,2.8-3.9,6.9-3.9,12.3v16H185z" id="svg_23"/>
	<path class="st0" d="M214.4,172.8v-8.3h5.3V153h9.6v11.4h11.2v8.3h-11.2v20.5c0,3.5,1.7,5.2,5.2,5.2c2.1,0,4-0.5,5.9-1.4v7.8   c-2.5,1.4-5.4,2.1-8.6,2.1c-8,0-12.1-4.1-12.1-12.3v-22H214.4z" id="svg_24"/>
	<path class="st0" d="M242.3,216.5l35.9-73.5h8.4l-35.9,73.5H242.3z" id="svg_25"/>
</g></g></svg>