<?xml version="1.0" encoding="utf-8"?>
<!-- Generator: Adobe Illustrator 21.0.0, SVG Export Plug-In . SVG Version: 6.00 Build 0)  -->
<svg version="1.1" id="Layer_1" xmlns="http://www.w3.org/2000/svg" xmlns:xlink="http://www.w3.org/1999/xlink" x="0px" y="0px"
	 viewBox="0 0 43.5 43.5" style="enable-background:new 0 0 43.5 43.5;" xml:space="preserve">
<style type="text/css">
	.st0{clip-path:url(#SVGID_2_);fill:#215378;}
	.st1{fill:#215378;}
</style>
<g>
	<g>
		<defs>
			<rect id="SVGID_1_" x="-0.4" y="0" width="43.9" height="44.9"/>
		</defs>
		<clipPath id="SVGID_2_">
			<use xlink:href="#SVGID_1_"  style="overflow:visible;"/>
		</clipPath>
		<path class="st0" d="M40.5,3c-4-4-10.5-4-14.6,0l-7.3,7.3c-0.6,0.6-0.6,1.6,0,2.2c0.6,0.6,1.6,0.6,2.2,0l7.3-7.3
			c1.3-1.3,3.1-2.1,5-2.1c1.9,0,3.7,0.7,5,2.1c1.3,1.3,2.1,3.1,2.1,5c0,1.9-0.7,3.7-2.1,5l-9.5,9.5c-2.8,2.8-7.3,2.8-10.1,0
			c-0.6-0.6-1.6-0.6-2.2,0c-0.6,0.6-0.6,1.6,0,2.2c2,2,4.6,3,7.3,3c2.6,0,5.3-1,7.3-3l9.5-9.5c1.9-1.9,3-4.5,3-7.3
			C43.5,7.5,42.4,4.9,40.5,3L40.5,3z M40.5,3"/>
	</g>
	<path class="st1" d="M21.5,32.1l-6.2,6.2c-1.3,1.3-3.1,2.1-5,2.1c-1.9,0-3.7-0.7-5-2.1c-2.8-2.8-2.8-7.3,0-10.1l9-9
		c1.3-1.3,3.1-2.1,5-2.1c1.9,0,3.7,0.7,5,2.1c0.6,0.6,1.6,0.6,2.2,0c0.6-0.6,0.6-1.6,0-2.2c-4-4-10.5-4-14.5,0l-9,9
		c-1.9,1.9-3,4.5-3,7.3s1.1,5.3,3,7.3c1.9,1.9,4.5,3,7.3,3c2.8,0,5.3-1.1,7.3-3l6.2-6.2c0.6-0.6,0.6-1.6,0-2.2
		C23.1,31.5,22.1,31.5,21.5,32.1L21.5,32.1z M21.5,32.1"/>
	<path class="st1" d="M26.9,34.8c-0.9,0-1.6,0.7-1.6,1.6v4.7c0,0.9,0.7,1.6,1.6,1.6c0.9,0,1.6-0.7,1.6-1.6v-4.7
		C28.5,35.5,27.8,34.8,26.9,34.8L26.9,34.8z M26.9,34.8"/>
	<path class="st1" d="M32.6,33.7c-0.6-0.6-1.6-0.6-2.2,0c-0.6,0.6-0.6,1.6,0,2.2l3.4,3.4c0.3,0.3,0.7,0.5,1.1,0.5
		c0.4,0,0.8-0.2,1.1-0.5c0.6-0.6,0.6-1.6,0-2.2L32.6,33.7z M32.6,33.7"/>
	<path class="st1" d="M36.4,28.5h-4.7c-0.9,0-1.6,0.7-1.6,1.6c0,0.9,0.7,1.6,1.6,1.6h4.7c0.9,0,1.6-0.7,1.6-1.6
		C38,29.2,37.3,28.5,36.4,28.5L36.4,28.5z M36.4,28.5"/>
	<path class="st1" d="M14.2,10.3c0.9,0,1.6-0.7,1.6-1.6V4c0-0.9-0.7-1.6-1.6-1.6c-0.9,0-1.6,0.7-1.6,1.6v4.7
		C12.7,9.6,13.4,10.3,14.2,10.3L14.2,10.3z M14.2,10.3"/>
	<path class="st1" d="M8.4,11.4c0.3,0.3,0.7,0.5,1.1,0.5c0.4,0,0.8-0.2,1.1-0.5c0.6-0.6,0.6-1.6,0-2.2L7.3,5.8
		C6.6,5.2,5.6,5.2,5,5.8C4.4,6.4,4.4,7.4,5,8.1L8.4,11.4z M8.4,11.4"/>
	<path class="st1" d="M4.7,16.6h4.7c0.9,0,1.6-0.7,1.6-1.6c0-0.9-0.7-1.6-1.6-1.6H4.7c-0.9,0-1.6,0.7-1.6,1.6
		C3.1,15.9,3.8,16.6,4.7,16.6L4.7,16.6z M4.7,16.6"/>
</g>
</svg>
